<?xml version="1.0" encoding="UTF-8" standalone="no"?>
<svg
   viewBox="0 0 36 36"
   version="1.1"
   id="svg4"
   sodipodi:docname="icon (Copie).svg"
   inkscape:version="1.4 (e7c3feb100, 2024-10-09)"
   inkscape:export-filename="icon128.png"
   inkscape:export-xdpi="341.33334"
   inkscape:export-ydpi="341.33334"
   xmlns:inkscape="http://www.inkscape.org/namespaces/inkscape"
   xmlns:sodipodi="http://sodipodi.sourceforge.net/DTD/sodipodi-0.dtd"
   xmlns="http://www.w3.org/2000/svg"
   xmlns:svg="http://www.w3.org/2000/svg">
  <defs
     id="defs4" />
  <sodipodi:namedview
     id="namedview4"
     pagecolor="#ffffff"
     bordercolor="#666666"
     borderopacity="1.0"
     inkscape:showpageshadow="2"
     inkscape:pageopacity="0.0"
     inkscape:pagecheckerboard="0"
     inkscape:deskcolor="#d1d1d1"
     inkscape:zoom="13.501002"
     inkscape:cx="5.6292116"
     inkscape:cy="15.406263"
     inkscape:window-width="1920"
     inkscape:window-height="1007"
     inkscape:window-x="0"
     inkscape:window-y="0"
     inkscape:window-maximized="1"
     inkscape:current-layer="svg4" />
  <path
     d="m32 34c0 1.104-.896 2-2 2h-24c-1.104 0-2-.896-2-2v-27c0-1.104.896-2 2-2h24c1.104 0 2 .896 2 2z"
     fill="#c1694f"
     id="path1"
     style="fill:#ca7f69;fill-opacity:1" />
  <path
     d="m29 32c0 .553-.447 1-1 1h-20c-.552 0-1-.447-1-1v-23c0-.552.448-1 1-1h20c.553 0 1 .448 1 1z"
     fill="#fff"
     id="path2" />
  <path
     d="m25 3h-4c0-1.657-1.343-3-3-3s-3 1.343-3 3h-4c-1.104 0-2 .896-2 2v5h18v-5c0-1.104-.896-2-2-2z"
     fill="#ccd6dd"
     id="path3" />
  <circle
     cx="18"
     cy="3"
     fill="#292f33"
     r="2"
     id="circle3" />
  <path
     d="m 20,14 c 0,0.552 -0.447,1 -1,1 H 10 C 9.448,15 9,14.552 9,14 9,13.448 9.448,13 10,13 h 9 c 0.553,0 1,0.448 1,1 z m 7,3.5 c 0,0.552 -0.447,1 -1,1 H 10 c -0.552,0 -1,-0.448 -1,-1 0,-0.552 0.448,-1 1,-1 h 16 c 0.553,0 1,0.448 1,1 z m 0,3 c 0,0.553 -0.447,1 -1,1 h -8 c -0.552,0 -1,-0.447 -1,-1 0,-0.553 0.448,-1 1,-1 h 8 c 0.553,0 1,0.447 1,1 z"
     fill="#99aab5"
     id="path4"
     style="fill:#ccd6dd;fill-opacity:1"
     sodipodi:nodetypes="sssssssssssssssssssss" />
  <text
     xml:space="preserve"
     style="font-size:16px;line-height:0.85;font-family:Arial;-inkscape-font-specification:Arial;text-align:center;letter-spacing:1.2px;word-spacing:0px;text-anchor:middle;stroke:none;stroke-width:2;stroke-dasharray:none;stroke-opacity:0.496727;paint-order:markers stroke fill"
     x="18"
     y="32.425499"
     id="text4"><tspan
       sodipodi:role="line"
       x="18.6"
       y="32.425499"
       style="font-style:normal;font-variant:normal;font-weight:bold;font-stretch:normal;font-size:16px;line-height:0.85;font-family:Monospace;-inkscape-font-specification:'Monospace Bold';letter-spacing:1.2px;direction:ltr;stroke:none;stroke-width:2;stroke-dasharray:none;stroke-opacity:0.496727;paint-order:markers stroke fill"
       id="tspan2">&lt;&gt;</tspan></text>
</svg>
